<svg version="1.0" xmlns="http://www.w3.org/2000/svg"
 width="45.000000pt" height="45.000000pt" viewBox="0 0 1000.000000 1000.000000"
 preserveAspectRatio="xMidYMid meet">

<g transform="translate(0.000000,1000.000000) scale(0.100000,-0.100000)"
fill="#000000" stroke="none">
<path d="M4785 8099 c-1367 -92 -2521 -1087 -2818 -2429 -97 -435 -97 -905 0
-1340 201 -908 800 -1679 1632 -2102 576 -292 1231 -396 1877 -297 795 121
1521 557 2008 1206 504 671 713 1506 585 2339 -178 1172 -1032 2154 -2169
2497 -364 110 -733 152 -1115 126z m115 -292 l0 -104 -132 -12 c-514 -47 -980
-226 -1393 -535 -158 -119 -413 -373 -532 -533 -307 -410 -487 -879 -534
-1390 l-12 -133 -104 0 -103 0 5 38 c2 20 7 77 10 125 23 335 136 723 310
1067 451 885 1363 1493 2356 1569 57 5 110 9 117 10 9 1 12 -26 12 -102z m425
82 c55 -6 165 -23 245 -39 1149 -229 2051 -1131 2280 -2280 27 -135 43 -255
54 -407 l4 -63 -103 0 -103 0 -7 88 c-40 529 -222 1013 -538 1435 -120 161
-373 414 -534 534 -411 308 -878 487 -1390 534 l-133 12 0 103 0 102 63 -4
c34 -3 107 -9 162 -15z m-51 -394 c463 -54 868 -216 1245 -498 123 -92 386
-355 478 -478 264 -353 422 -731 490 -1169 25 -161 25 -539 0 -700 -67 -432
-229 -821 -490 -1169 -92 -123 -355 -386 -478 -478 -353 -264 -731 -422 -1169
-490 -161 -25 -539 -25 -700 0 -432 67 -821 229 -1169 490 -123 92 -386 355
-478 478 -587 785 -678 1799 -239 2657 127 248 255 422 466 632 213 213 386
341 640 469 433 220 932 311 1404 256z m-2965 -2727 c47 -513 226 -979 535
-1393 121 -162 373 -413 536 -534 427 -317 903 -496 1433 -536 l87 -7 0 -103
0 -104 -57 5 c-194 16 -284 28 -413 54 -1150 230 -2051 1131 -2280 2280 -27
135 -43 255 -54 408 l-4 62 102 0 103 0 12 -132z m5595 75 c-16 -194 -28 -284
-54 -413 -230 -1149 -1131 -2050 -2280 -2280 -129 -26 -219 -38 -412 -54 l-58
-5 0 105 c0 92 2 104 18 104 137 0 450 52 633 106 444 129 817 351 1155 688
336 337 559 711 688 1155 54 183 106 496 106 634 0 15 12 17 104 17 l105 0 -5
-57z"/>
<path d="M3140 5580 l0 -140 330 0 330 0 0 -580 0 -580 170 0 170 0 0 580 0
580 365 0 365 0 0 140 0 140 -865 0 -865 0 0 -140z"/>
<path d="M5270 5636 l-135 -82 -3 -267 -2 -266 143 -85 143 -86 257 0 257 0 0
145 0 145 -250 0 -250 0 0 145 0 145 250 0 250 0 0 145 0 145 -262 -1 -263 -1
-135 -82z"/>
<path d="M6050 5575 l0 -145 250 0 250 0 0 -85 0 -85 155 0 156 0 -3 147 -3
147 -140 83 -140 83 -262 0 -263 0 0 -145z"/>
<path d="M6050 4995 l0 -145 250 0 250 0 0 -145 0 -145 -245 0 -245 0 0 -140
0 -140 257 0 256 0 144 83 143 82 -2 263 -3 264 -144 84 -143 84 -259 0 -259
0 0 -145z"/>
<path d="M5130 4588 l0 -143 144 -82 144 -83 256 0 256 0 0 140 0 140 -245 0
-245 0 0 85 0 85 -155 0 -155 0 0 -142z"/>
</g>
</svg>
